<?xml version="1.0" encoding="UTF-8"?>
<svg id="Dark" xmlns="http://www.w3.org/2000/svg" xmlns:xlink="http://www.w3.org/1999/xlink" viewBox="0 0 870 300">
  <defs>
    <style>
      .cls-1 {
        fill: none;
      }

      .cls-2 {
        fill: #b81f67;
      }

      .cls-3 {
        fill: #fdeef4;
      }

      .cls-4 {
        fill: #6e103d;
      }

      .cls-5 {
        fill: #931c54;
      }

      .cls-6 {
        fill: #470f28;
      }

      .cls-7 {
        fill: #dc187a;
      }

      .cls-8 {
        fill: #e8378f;
      }

      .cls-9 {
        fill: #240e17;
      }

      .cls-10 {
        clip-path: url(#clippath);
      }
    </style>
    <clipPath id="clippath">
      <path class="cls-1" d="M297.68,283.21l-154-133L-20.32,286.21V14.21l164,136c.22-.22,154-136,154-136v269Z"/>
    </clipPath>
  </defs>
  <g id="Future">
    <path class="cls-3" d="M352.01,68.37v-20.37h-68.7v32.86c9.55,18.38,15.41,38.99,16.59,60.84h7.57v-37.23h43.55v-20.51h-43.55v-15.59h44.53Z"/>
    <path class="cls-3" d="M365.07,48h24.59v54.93c0,11.1,5.9,19.11,18.97,19.11s18.83-8.01,18.83-19.11v-54.93h24.59v55.63c0,23.32-13.35,39.76-43.41,39.76s-43.55-16.58-43.55-39.62v-55.77Z"/>
    <path class="cls-3" d="M489.83,69.07h-26.27v-21.07h76.57v21.07h-26.13v72.63h-24.16v-72.63Z"/>
    <path class="cls-3" d="M551.64,48h24.59v54.93c0,11.1,5.9,19.11,18.97,19.11s18.83-8.01,18.83-19.11v-54.93h24.58v55.63c0,23.32-13.35,39.76-43.41,39.76s-43.55-16.58-43.55-39.62v-55.77Z"/>
    <path class="cls-3" d="M691.99,109.95h-12.36v31.75h-24.16V48h46.92c20.79,0,32.59,13.77,32.59,31.19,0,16.3-9.97,25.01-18.68,28.1l19.11,34.42h-27.68l-15.74-31.75ZM698.73,68.37h-19.11v21.07h19.11c6.32,0,11.66-4.07,11.66-10.54s-5.34-10.54-11.66-10.54Z"/>
    <path class="cls-3" d="M748.33,48h68.7v20.37h-44.54v15.59h43.55v20.51h-43.55v16.86h44.54v20.37h-68.7V48Z"/>
  </g>
  <g id="Signals">
    <path class="cls-3" d="M325.34,185.08c-10.4-1.97-16.16-3.65-16.16-8.57,0-4.07,3.09-7.3,11.1-7.3s18.54,3.23,26.41,9.69l13.21-17.28c-9.97-8.57-23.04-13.07-38.07-13.07-8.69,0-15.97,1.79-21.74,4.81-.34,15.07-2.9,29.58-7.37,43.24,7.71,6.45,19.41,8.65,28.83,10.54,9.97,2.11,16.02,4.21,16.02,9.55,0,4.5-5.06,8.01-13.35,8.01-12.78,0-23.18-5.62-29.92-12.36l-12.78,18.12c9.41,8.99,22.62,14.89,41.58,14.89,25.15,0,39.06-12.5,39.06-31.33,0-21.21-21.35-25.71-36.81-28.94Z"/>
    <path class="cls-3" d="M373.38,149.96h24.16v93.71h-24.16v-93.71Z"/>
    <path class="cls-3" d="M460.34,148.41c20.51,0,33.16,10.12,40.04,21.78l-20.23,10.68c-3.79-6.18-10.96-11.1-19.81-11.1-15.31,0-26.13,11.8-26.13,27.11s10.82,27.11,26.13,27.11c7.31,0,13.91-2.53,17.7-5.62v-7.87h-21.49v-20.09h45.24v36.67c-10.12,11.1-23.74,18.26-41.44,18.26-27.96,0-50.72-18.68-50.72-48.47s22.76-48.47,50.72-48.47Z"/>
    <path class="cls-3" d="M540.14,187.05v56.62h-24.16v-93.71h24.87l37.93,53.95v-53.95h24.3v93.71h-23.32l-39.62-56.62Z"/>
    <path class="cls-3" d="M679.93,229.47h-38.92l-4.78,14.19h-26.27l35.26-93.71h30.34l35.4,93.71h-26.27l-4.78-14.19ZM647.33,209.1h26.27l-13.21-38.07-13.07,38.07Z"/>
    <path class="cls-3" d="M717.86,149.96h24.16v72.63h37.65v21.07h-61.81v-93.71Z"/>
    <path class="cls-3" d="M798.22,212.33c6.74,6.74,17.14,12.36,29.92,12.36,8.29,0,13.35-3.51,13.35-8.01,0-5.34-6.04-7.45-16.02-9.55-15.45-3.09-37.09-7.02-37.09-29.22,0-15.73,13.35-29.36,37.37-29.36,15.03,0,28.1,4.5,38.07,13.07l-13.21,17.28c-7.87-6.46-18.12-9.69-26.41-9.69s-11.1,3.23-11.1,7.3c0,4.92,5.76,6.6,16.16,8.57,15.45,3.23,36.81,7.73,36.81,28.94,0,18.83-13.91,31.33-39.06,31.33-18.97,0-32.17-5.9-41.58-14.89l12.78-18.12Z"/>
  </g>
  <g>
    <circle class="cls-8" cx="144.13" cy="149.93" r="125"/>
    <circle class="cls-7" cx="144.13" cy="149.93" r="100"/>
    <circle class="cls-2" cx="144.13" cy="149.93" r="75"/>
    <circle class="cls-5" cx="144.13" cy="149.93" r="50"/>
    <circle class="cls-4" cx="144.13" cy="149.93" r="25"/>
  </g>
  <g class="cls-10">
    <g>
      <circle class="cls-2" cx="144.13" cy="149.93" r="125"/>
      <circle class="cls-5" cx="144.13" cy="149.93" r="100"/>
      <circle class="cls-4" cx="144.13" cy="149.93" r="75"/>
      <circle class="cls-6" cx="144.13" cy="149.93" r="50"/>
      <circle class="cls-9" cx="144.13" cy="149.93" r="25"/>
    </g>
  </g>
</svg>